<svg id="visual" viewBox="0 0 900 600" width="900" height="600" xmlns="http://www.w3.org/2000/svg" xmlns:xlink="http://www.w3.org/1999/xlink" version="1.1"><rect x="0" y="0" width="900" height="600" fill="#001220"></rect><defs><linearGradient id="grad1_0" x1="33.3%" y1="0%" x2="100%" y2="100%"><stop offset="20%" stop-color="#001220" stop-opacity="1"></stop><stop offset="80%" stop-color="#001220" stop-opacity="1"></stop></linearGradient></defs><defs><linearGradient id="grad2_0" x1="0%" y1="0%" x2="66.7%" y2="100%"><stop offset="20%" stop-color="#001220" stop-opacity="1"></stop><stop offset="80%" stop-color="#001220" stop-opacity="1"></stop></linearGradient></defs><g transform="translate(900, 0)"><path d="M0 146C-10.7 134.7 -21.3 123.5 -32.1 119.8C-42.8 116.1 -53.7 119.9 -71.5 123.8C-89.3 127.8 -114.2 132 -122.3 122.3C-130.5 112.7 -122 89.3 -131.6 76C-141.3 62.7 -169 59.6 -181.6 48.7C-194.2 37.7 -191.8 18.8 -189.3 0L0 0Z" fill="#FBAE3C"></path></g><g transform="translate(0, 600)"><path d="M0 -167C16.6 -173.8 33.2 -180.6 46.8 -174.8C60.5 -169.1 71.3 -150.7 77.5 -134.2C83.7 -117.8 85.3 -103.2 96.2 -96.2C107.1 -89.2 127.2 -89.8 144.6 -83.5C162 -77.2 176.6 -64.1 182.8 -49C189.1 -33.9 187.1 -17 185 0L0 0Z" fill="#FBAE3C"></path></g></svg>